<svg width="380" height="139" viewBox="0 0 380 139" fill="none" xmlns="http://www.w3.org/2000/svg">
<mask id="mask0" mask-type="alpha" maskUnits="userSpaceOnUse" x="0" y="0" width="139" height="139">
<path fill-rule="evenodd" clip-rule="evenodd" d="M69.4696 138.939C107.837 138.939 138.939 107.837 138.939 69.4696C138.939 31.1026 107.837 0 69.4696 0C31.1026 0 0 31.1026 0 69.4696C0 107.837 31.1026 138.939 69.4696 138.939ZM99.1518 56.7249C89.7952 56.8862 82.2132 49.3041 82.2132 39.9475C82.2132 37.0438 83.0198 34.14 84.3103 31.7202C79.632 29.9457 74.6311 28.9777 69.4689 28.9777C47.0453 28.9777 28.9774 47.207 28.9774 69.6305C28.9774 92.054 47.2066 110.122 69.6302 109.961C92.0537 109.799 110.122 91.7314 109.96 69.3078C109.96 64.1456 108.992 59.1447 107.218 54.6277C104.798 56.0796 102.056 56.7249 99.1518 56.7249ZM111.741 39.7862C111.741 46.7391 106.105 52.3755 99.1519 52.3755C92.1991 52.3755 86.5627 46.7391 86.5627 39.7862C86.5627 32.8334 92.1991 27.197 99.1519 27.197C106.105 27.197 111.741 32.8334 111.741 39.7862Z" fill="#C4C4C4"/>
</mask>
<g mask="url(#mask0)">
<g filter="url(#filter0_f)">
<path d="M118.867 69.8343C118.867 97.2906 96.6092 119.548 69.153 119.548C41.6967 119.548 19.439 97.2906 19.439 69.8343C19.439 42.3781 41.6967 20.1204 69.153 20.1204C96.6092 20.1204 118.867 42.3781 118.867 69.8343Z" fill="url(#paint0_linear)"/>
</g>
</g>
<path d="M164.013 82.7988C170.444 82.7988 175.037 80.7618 177.513 75.8891C178.751 73.4127 179.35 70.2574 179.35 66.2634V53.5223H172.321V66.0637C172.321 71.2959 171.163 74.1716 168.686 75.4098C167.448 76.0488 165.97 76.3684 164.093 76.3684C160.418 76.3684 157.902 75.1701 156.624 72.1746C155.985 70.6568 155.666 68.6199 155.666 66.0637V53.5223H148.636V66.2634C148.636 74.2914 150.992 78.9645 155.586 81.1612C157.902 82.2396 160.658 82.7988 164.013 82.7988Z" fill="white"/>
<path d="M191.197 82V71.8551C191.197 66.4631 193.473 63.7072 198.786 63.7072C203.858 63.7072 205.536 66.4231 205.536 71.0962V82H212.405V69.4586C212.405 64.8654 210.568 61.4705 207.213 59.6332C205.496 58.6746 203.459 58.2353 201.062 58.2353C196.03 58.2353 192.595 60.472 190.757 64.0666L190.198 59.0741H184.287V82H191.197Z" fill="white"/>
<path d="M221.193 55.5593C224.149 55.5593 225.587 54.3211 225.587 51.4454C225.587 48.4498 224.029 47.4114 221.193 47.4114C218.398 47.4114 216.8 48.4498 216.8 51.4454C216.8 54.5608 218.078 55.5593 221.193 55.5593ZM217.559 82H224.549V59.0741H217.559V82Z" fill="white"/>
<path d="M239.59 82H246.02L259.161 59.0741H251.572L242.985 75.1302L234.637 59.0741H227.128L239.59 82Z" fill="white"/>
<path d="M289.464 75.1701H281.995C280.876 76.7278 278.879 77.5266 274.686 77.5266C269.134 77.5266 266.578 75.9689 265.779 72.9734H289.743V70.537C289.743 65.3847 287.307 61.7101 282.794 59.7131C280.477 58.7146 277.841 58.2353 274.646 58.2353C267.776 58.2353 263.342 60.7516 261.026 64.6657C259.908 66.5829 259.348 68.6598 259.348 70.9764C259.348 75.6494 261.066 79.2441 265.419 81.2811C267.616 82.2396 270.492 82.7589 274.126 82.7589C281.715 82.7589 286.987 80.8417 289.464 75.1701ZM274.845 63.4276C279.758 63.4276 282.274 64.7856 283.033 68.1406H265.939C266.897 65.145 269.773 63.4276 274.845 63.4276Z" fill="white"/>
<path d="M293.851 82H300.761V74.4113C300.761 69.898 301.599 67.4216 304.156 66.3033C305.434 65.7042 307.271 65.4646 309.667 65.4646H312.743V58.8344H309.827C304.515 58.8344 301.719 61.3507 300.481 65.4646L299.722 59.0741H293.851V82Z" fill="white"/>
<path d="M330.513 82.7589C339.46 82.7589 344.013 79.4038 344.013 74.8107C344.013 72.4142 343.334 70.7767 341.337 69.6983C339.42 68.5799 336.105 68.0208 330.872 67.8211C327.038 67.6613 324.881 67.4616 323.763 67.1421C322.645 66.7826 322.445 66.3033 322.445 65.6243C322.445 64.7856 323.044 63.9867 324.801 63.5075C325.72 63.2279 326.958 63.148 328.636 63.148C332.909 63.148 335.705 63.8669 336.344 66.2234H343.693C342.016 60.6717 337.343 58.2353 328.716 58.2353C322.884 58.2353 319.17 59.7131 317.293 62.1095C316.334 63.2678 315.895 64.6258 315.895 66.1835C315.895 70.7367 319.449 72.6139 328.556 72.8935C332.39 73.0133 334.667 73.1731 335.825 73.4926C336.983 73.7722 337.303 74.2116 337.303 74.9704C337.303 76.5681 335.865 77.5666 330.872 77.5666C325.56 77.5666 323.603 76.6479 322.844 74.4113H315.056C316.214 80.0828 321.087 82.7589 330.513 82.7589Z" fill="white"/>
<path d="M377.419 75.1701H369.95C368.832 76.7278 366.835 77.5266 362.641 77.5266C357.089 77.5266 354.533 75.9689 353.734 72.9734H377.698V70.537C377.698 65.3847 375.262 61.7101 370.749 59.7131C368.432 58.7146 365.796 58.2353 362.601 58.2353C355.731 58.2353 351.298 60.7516 348.981 64.6657C347.863 66.5829 347.304 68.6598 347.304 70.9764C347.304 75.6494 349.021 79.2441 353.375 81.2811C355.571 82.2396 358.447 82.7589 362.082 82.7589C369.67 82.7589 374.943 80.8417 377.419 75.1701ZM362.801 63.4276C367.713 63.4276 370.23 64.7856 370.988 68.1406H353.894C354.852 65.145 357.728 63.4276 362.801 63.4276Z" fill="white"/>
<defs>
<filter id="filter0_f" x="-2.32196" y="-1.64056" width="142.95" height="142.95" filterUnits="userSpaceOnUse" color-interpolation-filters="sRGB">
<feFlood flood-opacity="0" result="BackgroundImageFix"/>
<feBlend mode="normal" in="SourceGraphic" in2="BackgroundImageFix" result="shape"/>
<feGaussianBlur stdDeviation="10.8805" result="effect1_foregroundBlur"/>
</filter>
<linearGradient id="paint0_linear" x1="32.6655" y1="37.857" x2="101.573" y2="106.765" gradientUnits="userSpaceOnUse">
<stop stop-color="#BFEF00"/>
<stop offset="1" stop-color="#00EAEA"/>
</linearGradient>
</defs>
</svg>
